PathFileType	4	(X/Y/Z)	/Users/itak/Documents/Research/Walk-IL/dataset/trc/00205_00008.trc
DataRate	CameraRate	NumFrames	NumMarkers	Units	OrigDataRate	OrigDataStartFrame	OrigNumFrames
100.000000	100.000000	4	53	mm	100.000000	63	505
Frame#	Time	RPSI			LPSI			L3			STRN			T10			C7			CLAV			RBAK			LBAK			LSHO			LUPA			LAEL			LAOL			LWTS			LWPS			LFRA			LIFD			LHPS			LHTS			RSHO			RUPA			RAEL			RAOL			RWTS			RWPS			RFRA			RIFD			RHTS			RHPS			RBHD			LFHD			RFHD			LBHD			LHIP			RHIP			RASI			LASI			LKNE			LTHI			LANK			LTIP			LTOE			LMT1			LMT5			LHEE			RKNE			RTHI			RANK			RTIP			RTOE			RMT1			RMT5			RHEE			
		X1	Y1	Z1	X2	Y2	Z2	X3	Y3	Z3	X4	Y4	Z4	X5	Y5	Z5	X6	Y6	Z6	X7	Y7	Z7	X8	Y8	Z8	X9	Y9	Z9	X10	Y10	Z10	X11	Y11	Z11	X12	Y12	Z12	X13	Y13	Z13	X14	Y14	Z14	X15	Y15	Z15	X16	Y16	Z16	X17	Y17	Z17	X18	Y18	Z18	X19	Y19	Z19	X20	Y20	Z20	X21	Y21	Z21	X22	Y22	Z22	X23	Y23	Z23	X24	Y24	Z24	X25	Y25	Z25	X26	Y26	Z26	X27	Y27	Z27	X28	Y28	Z28	X29	Y29	Z29	X30	Y30	Z30	X31	Y31	Z31	X32	Y32	Z32	X33	Y33	Z33	X34	Y34	Z34	X35	Y35	Z35	X36	Y36	Z36	X37	Y37	Z37	X38	Y38	Z38	X39	Y39	Z39	X40	Y40	Z40	X41	Y41	Z41	X42	Y42	Z42	X43	Y43	Z43	X44	Y44	Z44	X45	Y45	Z45	X46	Y46	Z46	X47	Y47	Z47	X48	Y48	Z48	X49	Y49	Z49	X50	Y50	Z50	X51	Y51	Z51	X52	Y52	Z52	X53	Y53	Z53	

64	0.63	-1697.581909179688	1059.700073242188	-575.56884765625	-1687.169067382812	1058.735961914062	-700.208740234375	-1689.927124023438	1095.77880859375	-635.947998046875	-1427.003295898438	1295.370483398438	-622.20361328125	-1719.851928710938	1252.449951171875	-646.6630859375	-1646.8154296875	1519.962036132812	-654.5823974609375	-1450.061767578125	1409.823974609375	-633.473388671875	-1727.577514648438	1347.704711914062	-549.8343505859375	-1645.330444335938	1494.742553710938	-756.3301391601562	-1561.258178710938	1478.498657226562	-827.5989990234375	-1587.887451171875	1345.674438476562	-901.606201171875	-1569.615234375	1124.272827148438	-911.6013793945312	-1627.908081054688	1112.203735351562	-846.4522705078125	-1463.2900390625	895.6097412109375	-851.9044799804688	-1534.464599609375	872.0587158203125	-904.4451293945312	-1551.415771484375	1013.466369628906	-918.3626098632812	-1452.073120117188	714.99951171875	-817.161376953125	-1512.937622070312	803.4738159179688	-894.466064453125	-1446.139038085938	816.946044921875	-866.6475830078125	-1599.134521484375	1497.702514648438	-468.244140625	-1623.302368164062	1431.029296875	-399.3993225097656	-1625.19921875	1140.236328125	-344.458740234375	-1630.046508789062	1132.156127929688	-442.755859375	-1481.945556640625	915.2944946289062	-361.8016052246094	-1555.402954101562	898.7635498046875	-312.0266418457031	-1599.028930664062	1069.43408203125	-325.18017578125	-1468.625366210938	726.275634765625	-382.8041687011719	-1454.330444335938	822.0010375976562	-352.5189819335938	-1526.409423828125	816.68896484375	-311.58837890625	-1613.627807617188	1673.726196289062	-591.4255981445312	-1423.172729492188	1737.054809570312	-676.5260620117188	-1456.426635742188	1736.6376953125	-551.3078002929688	-1587.246948242188	1681.260986328125	-726.5633544921875	-1577.410034179688	989.8551635742188	-809.1170043945312	-1557.556396484375	1016.119812011719	-437.7617797851562	-1465.170654296875	1040.7529296875	-490.0165100097656	-1455.314208984375	1022.865112304688	-746.978759765625	-1580.091186523438	492.1832580566406	-751.033447265625	-1568.012451171875	632.3717041015625	-785.2471313476562	-1690.451538085938	40.75337219238281	-734.48583984375	-1629.471435546875	270.1197814941406	-754.9005737304688	-1469.848754882812	39.93044281005859	-715.6513061523438	-1518.461669921875	39.25732421875	-665.9782104492188	-1583.272705078125	33.34323883056641	-777.0345458984375	-1738.604125976562	39.00501251220703	-663.80615234375	-1544.035888671875	512.797119140625	-441.1148681640625	-1506.494995117188	783.9203491210938	-419.1709594726562	-1661.66943359375	35.78076553344727	-413.5441589355469	-1541.594604492188	391.4085083007812	-453.0379028320312	-1440.139892578125	41.51735687255859	-457.1000366210938	-1497.065795898438	39.98918151855469	-500.0819396972656	-1548.563110351562	34.30644607543945	-382.9439697265625	-1715.117309570312	30.44496154785156	-477.8472595214844	
65	0.64	-1696.918701171875	1059.546875	-577.0305786132812	-1686.4443359375	1058.599365234375	-701.6748046875	-1689.264770507812	1095.707153320312	-637.4623413085938	-1425.994262695312	1295.038696289062	-623.6384887695312	-1718.938598632812	1252.478393554688	-648.2199096679688	-1645.565795898438	1519.860107421875	-655.9425659179688	-1448.988891601562	1409.557373046875	-634.8488159179688	-1726.578735351562	1347.669189453125	-551.3287353515625	-1644.089965820312	1494.7587890625	-757.7154541015625	-1559.99609375	1478.464599609375	-828.9736938476562	-1586.784057617188	1345.69140625	-903.0184326171875	-1568.782836914062	1124.173583984375	-912.7207641601562	-1627.184814453125	1112.2744140625	-847.6187133789062	-1462.656127929688	895.6090087890625	-852.427490234375	-1533.689331054688	871.9204711914062	-904.9876708984375	-1550.636596679688	1013.316711425781	-919.243408203125	-1451.40185546875	715.1317138671875	-817.1318359375	-1512.226440429688	803.3729858398438	-894.8240356445312	-1445.465576171875	816.890869140625	-866.9658203125	-1597.998657226562	1497.43115234375	-469.609375	-1622.284057617188	1430.755615234375	-400.8297119140625	-1624.611694335938	1140.005859375	-345.9390563964844	-1629.207397460938	1131.896850585938	-444.1954956054688	-1481.6318359375	914.8714599609375	-362.7787780761719	-1555.149047851562	898.4840087890625	-313.1934814453125	-1598.524291992188	1069.192626953125	-326.546630859375	-1468.382690429688	725.8524780273438	-383.636474609375	-1453.908203125	821.5670776367188	-353.4393310546875	-1526.251586914062	816.3875732421875	-312.6438293457031	-1612.031127929688	1673.492431640625	-592.41357421875	-1421.530883789062	1736.695556640625	-677.4105834960938	-1454.837890625	1736.162231445312	-552.2052001953125	-1585.622314453125	1681.213745117188	-727.5693969726562	-1576.817626953125	989.624267578125	-810.677490234375	-1556.989135742188	1015.912353515625	-439.2404479980469	-1464.595947265625	1040.540649414062	-491.5905151367188	-1454.671630859375	1022.650268554688	-748.5575561523438	-1579.839599609375	491.9080505371094	-751.8876953125	-1567.594970703125	632.150390625	-786.3336791992188	-1690.458374023438	40.62369155883789	-734.6783447265625	-1629.244384765625	269.9580993652344	-755.3895874023438	-1469.898071289062	39.95426177978516	-715.57861328125	-1518.530883789062	39.27331924438477	-665.9593505859375	-1583.276489257812	33.30392456054688	-777.07275390625	-1738.663940429688	38.93362808227539	-663.9874877929688	-1539.332275390625	512.2435302734375	-442.6548156738281	-1504.258911132812	784.1270751953125	-420.8287658691406	-1661.55810546875	35.95644760131836	-413.6519775390625	-1537.59326171875	390.2429504394531	-454.2057189941406	-1440.056274414062	41.4269905090332	-457.1426086425781	-1496.911865234375	39.93365478515625	-500.0669250488281	-1548.506591796875	34.27798080444336	-382.76416015625	-1715.073120117188	30.63467979431152	-477.9622192382812	
66	0.65	-1696.289428710938	1059.347778320312	-578.5027465820312	-1685.722534179688	1058.44140625	-703.160400390625	-1688.637329101562	1095.616943359375	-639.0027465820312	-1424.98779296875	1294.6640625	-625.0930786132812	-1718.009155273438	1252.496459960938	-649.8209228515625	-1644.228271484375	1519.7109375	-657.3290405273438	-1447.923706054688	1409.24755859375	-636.2584228515625	-1725.57568359375	1347.633178710938	-552.8843994140625	-1642.791625976562	1494.756713867188	-759.1505126953125	-1558.696899414062	1478.42041015625	-830.4022216796875	-1585.606567382812	1345.695556640625	-904.4854736328125	-1567.90771484375	1124.064697265625	-913.9002075195312	-1626.42431640625	1112.338989257812	-848.8599243164062	-1461.988525390625	895.5770263671875	-852.9873046875	-1532.889770507812	871.7662963867188	-905.592041015625	-1549.8154296875	1013.158752441406	-920.183837890625	-1450.837158203125	715.1724243164062	-817.2039794921875	-1511.50048828125	803.2509765625	-895.2431030273438	-1444.796264648438	816.808349609375	-867.3147583007812	-1596.841552734375	1497.143920898438	-471.0238647460938	-1621.264526367188	1430.481811523438	-402.3106384277344	-1624.035766601562	1139.760498046875	-347.4682312011719	-1628.366333007812	1131.62548828125	-445.6909484863281	-1481.311279296875	914.4647827148438	-363.7873840332031	-1554.864990234375	898.1900634765625	-314.4119873046875	-1598.048095703125	1068.933837890625	-327.9672241210938	-1468.045654296875	725.4635620117188	-384.5035705566406	-1453.522583007812	821.1380004882812	-354.367431640625	-1526.057250976562	816.0827026367188	-313.7555236816406	-1610.398193359375	1673.215454101562	-593.439208984375	-1419.859619140625	1736.312866210938	-678.3143310546875	-1453.231323242188	1735.650146484375	-553.1236572265625	-1583.970336914062	1681.139770507812	-728.6260375976562	-1576.23193359375	989.3993530273438	-812.27734375	-1556.43310546875	1015.613647460938	-440.7234497070312	-1464.063598632812	1040.275268554688	-493.1752319335938	-1454.042846679688	1022.421875	-750.1491088867188	-1579.526123046875	491.6254577636719	-752.7763061523438	-1567.10546875	631.92724609375	-787.4265747070312	-1690.450439453125	40.50600051879883	-734.8704833984375	-1628.972412109375	269.7573852539062	-755.8868408203125	-1469.943237304688	39.97308731079102	-715.5040893554688	-1518.601196289062	39.29267120361328	-665.9410400390625	-1583.282348632812	33.2612190246582	-777.090087890625	-1738.735473632812	38.86354064941406	-664.1732177734375	-1534.16455078125	511.6028137207031	-444.3096618652344	-1501.761474609375	784.207275390625	-422.5527038574219	-1661.420654296875	36.20517349243164	-413.8201904296875	-1533.240478515625	388.968994140625	-455.4106750488281	-1439.940551757812	41.32255172729492	-457.1833190917969	-1496.702514648438	39.86856460571289	-500.0382690429688	-1548.4169921875	34.25916290283203	-382.5945739746094	-1714.982177734375	30.88901138305664	-478.1423645019531	
67	0.66	-1695.697631835938	1059.084716796875	-579.9864501953125	-1685.006225585938	1058.254516601562	-704.6604614257812	-1688.046752929688	1095.49755859375	-640.5626220703125	-1424.001098632812	1294.2333984375	-626.5599365234375	-1717.068115234375	1252.499633789062	-651.46142578125	-1642.811645507812	1519.523071289062	-658.7491455078125	-1446.850219726562	1408.8798828125	-637.689453125	-1724.566528320312	1347.592895507812	-554.4945678710938	-1641.426635742188	1494.727416992188	-760.63134765625	-1557.34033203125	1478.35107421875	-831.8735961914062	-1584.345092773438	1345.675170898438	-906.001220703125	-1566.987426757812	1123.934326171875	-915.142822265625	-1625.623168945312	1112.384887695312	-850.1813354492188	-1461.281860351562	895.504638671875	-853.5834350585938	-1532.0625	871.5862426757812	-906.264404296875	-1548.950317382812	1012.979797363281	-921.1893920898438	-1450.3427734375	715.1246948242188	-817.3729858398438	-1510.756591796875	803.0967407226562	-895.7294311523438	-1444.118041992188	816.6929931640625	-867.7014770507812	-1595.6591796875	1496.833984375	-472.4822387695312	-1620.245971679688	1430.199829101562	-403.8384094238281	-1623.46826171875	1139.49462890625	-349.0353088378906	-1627.54248046875	1131.335693359375	-447.238037109375	-1480.9775390625	914.0697631835938	-364.8343200683594	-1554.552856445312	897.8768920898438	-315.6847839355469	-1597.593139648438	1068.6533203125	-329.4338989257812	-1467.617797851562	725.0982055664062	-385.42041015625	-1453.182495117188	820.7137451171875	-355.3065795898438	-1525.822021484375	815.7667846679688	-314.9272155761719	-1608.729858398438	1672.884399414062	-594.5037841796875	-1418.161254882812	1735.901733398438	-679.2376098632812	-1451.607666015625	1735.094604492188	-554.0643310546875	-1582.2919921875	1681.026733398438	-729.7335815429688	-1575.6435546875	989.1820068359375	-813.9087524414062	-1555.89892578125	1015.201538085938	-442.2017517089844	-1463.586181640625	1039.942016601562	-494.7527465820312	-1453.427612304688	1022.175109863281	-751.7413330078125	-1579.1572265625	491.3369750976562	-753.7069702148438	-1566.543334960938	631.6987915039062	-788.5250854492188	-1690.431030273438	40.39886093139648	-735.0579223632812	-1628.660034179688	269.5128479003906	-756.399658203125	-1469.984252929688	39.98643112182617	-715.4305419921875	-1518.671508789062	39.31214904785156	-665.9222412109375	-1583.29052734375	33.21287155151367	-777.0948486328125	-1738.816040039062	38.79400634765625	-664.3516845703125	-1528.557250976562	510.8783569335938	-446.0883483886719	-1499.016479492188	784.1238403320312	-424.3435974121094	-1661.251098632812	36.5375862121582	-414.0668334960938	-1528.570190429688	387.6084594726562	-456.6490478515625	-1439.78466796875	41.2047004699707	-457.2172546386719	-1496.437377929688	39.79224014282227	-499.9974670410156	-1548.293212890625	34.25695037841797	-382.4669189453125	-1714.827880859375	31.2334098815918	-478.4112243652344	
